<?xml version="1.0" encoding="UTF-8" standalone="no"?>
<svg width="17px" height="18px" viewBox="0 0 17 18" version="1.1" xmlns="http://www.w3.org/2000/svg" xmlns:xlink="http://www.w3.org/1999/xlink" xmlns:sketch="http://www.bohemiancoding.com/sketch/ns">
    <!-- Generator: Sketch 3.2.2 (9983) - http://www.bohemiancoding.com/sketch -->
    <title>Fill 756</title>
    <desc>Created with Sketch.</desc>
    <defs></defs>
    <g id="Page-1" stroke="none" stroke-width="1" fill="none" fill-rule="evenodd" sketch:type="MSPage">
        <g id="Pictos-1" sketch:type="MSLayerGroup" transform="translate(-2799.000000, -2058.000000)" fill="#919FA7">
            <path d="M2814.6276,2065.82482 L2812.23798,2065.35701 C2812.00604,2065.31188 2811.92443,2065.10515 2812.05607,2064.89748 L2813.42701,2062.73825 C2813.55887,2062.53057 2813.53019,2062.2161 2813.36363,2062.0389 L2812.04851,2060.64186 C2811.88196,2060.46466 2811.58575,2060.43466 2811.39029,2060.57453 L2809.35779,2062.0311 C2809.16233,2062.17121 2808.96753,2062.08403 2808.92505,2061.83808 L2808.48498,2059.29822 C2808.44228,2059.05203 2808.21457,2058.8505 2807.97886,2058.8505 L2806.11892,2058.8505 C2805.88321,2058.8505 2805.6555,2059.05203 2805.6128,2059.29822 L2805.17295,2061.83784 C2805.13025,2062.08379 2804.93523,2062.17097 2804.73998,2062.03087 L2802.70793,2060.57453 C2802.51269,2060.43466 2802.21649,2060.46466 2802.04971,2060.64186 L2800.73459,2062.03914 C2800.56781,2062.21634 2800.53935,2062.53104 2800.67122,2062.73825 L2802.04193,2064.89748 C2802.17357,2065.10515 2802.09174,2065.31188 2801.8598,2065.35701 L2799.47018,2065.82482 C2799.23824,2065.87018 2799.049,2066.11235 2799.049,2066.36256 L2799.049,2068.33844 C2799.049,2068.58865 2799.23824,2068.83082 2799.47018,2068.87618 L2801.86069,2069.34375 C2802.09218,2069.38912 2802.17402,2069.59608 2802.04237,2069.80352 L2800.67122,2071.96299 C2800.53935,2072.17067 2800.56781,2072.48514 2800.73459,2072.66234 L2802.04971,2074.05937 C2802.21649,2074.23657 2802.51269,2074.26705 2802.70793,2074.12694 L2804.73998,2072.67108 C2804.93523,2072.5305 2805.13025,2072.61792 2805.17295,2072.86363 L2805.6128,2075.40278 C2805.6555,2075.64897 2805.88321,2075.8505 2806.11892,2075.8505 L2807.97886,2075.8505 C2808.21457,2075.8505 2808.44228,2075.64897 2808.48498,2075.40278 L2808.92505,2072.8634 C2808.96753,2072.61745 2809.16233,2072.53026 2809.35779,2072.67084 L2811.39029,2074.12694 C2811.58575,2074.26705 2811.88196,2074.23657 2812.04851,2074.05937 L2813.36341,2072.66281 C2813.53019,2072.48537 2813.55865,2072.1709 2813.42678,2071.96323 L2812.05563,2069.80352 C2811.92376,2069.59608 2812.0056,2069.38912 2812.23709,2069.34375 L2814.6276,2068.87618 C2814.85954,2068.83082 2815.049,2068.58865 2815.049,2068.33844 L2815.049,2066.36256 C2815.049,2066.11235 2814.85954,2065.87018 2814.6276,2065.82482 L2814.6276,2065.82482 Z M2807.04778,2070.42892 C2805.45136,2070.42892 2804.15692,2069.05385 2804.15692,2067.35747 C2804.15692,2065.66132 2805.45136,2064.28602 2807.04778,2064.28602 C2808.64442,2064.28602 2809.93863,2065.66132 2809.93863,2067.35747 C2809.93863,2069.05385 2808.64442,2070.42892 2807.04778,2070.42892 L2807.04778,2070.42892 Z" id="Fill-756" sketch:type="MSShapeGroup"></path>
        </g>
    </g>
</svg>