<?xml version="1.0" encoding="UTF-8" standalone="no"?>
<svg width="14px" height="7px" viewBox="0 0 14 7" version="1.1" xmlns="http://www.w3.org/2000/svg" xmlns:xlink="http://www.w3.org/1999/xlink" xmlns:sketch="http://www.bohemiancoding.com/sketch/ns">
    <!-- Generator: Sketch 3.2.2 (9983) - http://www.bohemiancoding.com/sketch -->
    <title>Fill 258</title>
    <desc>Created with Sketch.</desc>
    <defs></defs>
    <g id="Page-1" stroke="none" stroke-width="1" fill="none" fill-rule="evenodd" sketch:type="MSPage">
        <path d="M10.3840867,2.94010165 L4.68228966,-3.3716554 C4.6052845,-3.45728147 4.50386306,-3.5 4.40261237,-3.5 C4.30153242,-3.5 4.20011098,-3.45728147 4.12293507,-3.3716554 L4.11593461,-3.36409459 C4.04166133,-3.28187088 4,-3.17053808 4,-3.05429075 L4,0.00915697064 C4,0.125404293 4.04166133,0.236737094 4.11593461,0.31896081 L6.76364878,3.24990549 L4.11593461,6.18085017 C4.04166133,6.26307389 4,6.37440669 4,6.49046499 L4,9.55429075 C4,9.67053808 4.04166133,9.78187088 4.11593461,9.86409459 L4.12293507,9.8716554 C4.19720835,9.95387911 4.29777607,10 4.40261237,10 C4.50761941,10 4.60835788,9.95387911 4.68246041,9.8716554 L10.3842575,3.55952031 C10.5386093,3.38845718 10.5386093,3.11116478 10.3840867,2.94010165" id="Fill-258" fill="#919FA7" sketch:type="MSShapeGroup" transform="translate(7.250000, 3.250000) rotate(90.000000) translate(-7.250000, -3.250000) "></path>
    </g>
</svg>